<?xml version="1.0" encoding="UTF-8" standalone="no"?>
<!-- Created with Inkscape (http://www.inkscape.org/) -->

<svg
   width="78.284279"
   height="15.761761"
   viewBox="0 0 78.284279 15.761761"
   version="1.1"
   id="svg1"
   xmlns="http://www.w3.org/2000/svg"
   xmlns:svg="http://www.w3.org/2000/svg">
  <defs
     id="defs1" />
  <g
     id="layer1"
     transform="translate(-45.64756,-52.911968)">
    <path
       style="font-weight:800;font-size:19.1888px;font-family:Roboto;-inkscape-font-specification:'Roboto Ultra-Bold';fill:#5c20ff;stroke-width:1.59907"
       d="M 70.881556,56.803412 67.358612,67.85009 H 64.098015 L 69.148193,54.208052 H 71.20949 Z M 73.80485,67.85009 70.272537,56.803412 69.907125,54.208052 h 2.089406 l 5.068916,13.642038 z m -0.149912,-5.078286 v 2.361122 h -7.111475 v -2.361122 z m 9.78179,2.258057 q 0,-0.281086 -0.178021,-0.496585 -0.168651,-0.215499 -0.618389,-0.393521 -0.440368,-0.178021 -1.246148,-0.356042 -0.758932,-0.159282 -1.414799,-0.412259 -0.655867,-0.262347 -1.143083,-0.627759 -0.487215,-0.374781 -0.758932,-0.880736 -0.271716,-0.515324 -0.271716,-1.171191 0,-0.637128 0.271716,-1.20867 0.281086,-0.571541 0.80578,-1.011909 0.534063,-0.440368 1.292995,-0.693345 0.768302,-0.252978 1.742733,-0.252978 1.339843,0 2.314275,0.421629 0.974431,0.412259 1.499125,1.161822 0.524693,0.740193 0.524693,1.695885 h -2.923293 q 0,-0.39352 -0.149913,-0.683976 -0.149912,-0.290455 -0.459107,-0.449737 -0.309195,-0.168652 -0.815149,-0.168652 -0.393521,0 -0.693346,0.140543 -0.290455,0.131174 -0.459107,0.365412 -0.159282,0.234238 -0.159282,0.543433 0,0.215499 0.0937,0.39352 0.103064,0.168652 0.309194,0.318564 0.215499,0.140543 0.552803,0.252978 0.346672,0.112434 0.843257,0.215499 1.058757,0.19676 1.930124,0.552802 0.880736,0.356042 1.40543,0.983801 0.534063,0.627759 0.534063,1.658407 0,0.674606 -0.309195,1.236778 -0.299825,0.562172 -0.871366,0.983801 -0.571541,0.421629 -1.367952,0.655867 -0.79641,0.234239 -1.79895,0.234239 -1.433538,0 -2.426708,-0.515325 -0.993171,-0.515324 -1.499126,-1.292995 -0.496585,-0.787041 -0.496585,-1.611559 h 2.745273 q 0.01874,0.505954 0.252977,0.824518 0.243608,0.318564 0.627759,0.468477 0.384151,0.140543 0.861997,0.140543 0.477846,0 0.79641,-0.131173 0.318564,-0.131174 0.487216,-0.356043 0.168651,-0.234238 0.168651,-0.534063 z m 7.533104,-7.317604 V 67.85009 H 88.037168 V 57.712257 Z m -3.110685,-2.623469 q 0,-0.637128 0.449738,-1.040018 0.449737,-0.412259 1.180561,-0.412259 0.730823,0 1.180561,0.412259 0.459107,0.40289 0.459107,1.040018 0,0.627759 -0.459107,1.040018 -0.449738,0.40289 -1.180561,0.40289 -0.730824,0 -1.180561,-0.40289 -0.449738,-0.412259 -0.449738,-1.040018 z M 98.971412,65.582663 V 53.458489 h 2.942028 V 67.85009 h -2.642203 z m -6.315065,-2.679686 v -0.19676 q 0,-1.152452 0.252978,-2.098775 0.262346,-0.955692 0.758932,-1.639668 0.505954,-0.693345 1.246147,-1.068127 0.740193,-0.374781 1.695886,-0.374781 0.880736,0 1.536603,0.39352 0.655867,0.384151 1.114974,1.086866 0.468477,0.693345 0.758933,1.639668 0.29045,0.936953 0.44037,2.033189 v 0.337303 q -0.14055,1.049387 -0.44037,1.958232 -0.290456,0.908844 -0.758933,1.60219 -0.459107,0.683976 -1.124344,1.077496 -0.655867,0.384151 -1.545972,0.384151 -0.955693,0 -1.695886,-0.384151 -0.730823,-0.384151 -1.227408,-1.077496 -0.496586,-0.693346 -0.758932,-1.630299 -0.252978,-0.936953 -0.252978,-2.042558 z m 2.923294,-0.19676 v 0.19676 q 0,0.59965 0.08433,1.114975 0.09369,0.515324 0.299825,0.908844 0.20613,0.39352 0.543433,0.618389 0.337303,0.215499 0.824519,0.215499 0.655867,0 1.077496,-0.299825 0.421629,-0.309194 0.637128,-0.852627 0.215499,-0.543433 0.224869,-1.264887 v -0.983801 q 0,-0.59965 -0.121804,-1.077496 -0.121804,-0.477846 -0.365412,-0.805779 -0.234238,-0.327934 -0.590281,-0.496586 -0.356042,-0.178021 -0.843257,-0.178021 -0.477847,0 -0.81515,0.224869 -0.337303,0.215499 -0.552802,0.60902 -0.20613,0.39352 -0.309195,0.927583 -0.0937,0.524694 -0.0937,1.143083 z m 14.232319,2.698425 v -7.692385 h 2.94203 V 67.85009 h -2.75464 z m 0.30919,-2.070666 0.80578,-0.01874 q 0,1.021279 -0.24361,1.883276 -0.23423,0.861996 -0.71208,1.499125 -0.46848,0.637128 -1.17119,0.99317 -0.69335,0.346673 -1.62093,0.346673 -0.74956,0 -1.37732,-0.20613 -0.61839,-0.215499 -1.06813,-0.665237 -0.44974,-0.459107 -0.69334,-1.171191 -0.24361,-0.721454 -0.24361,-1.723994 v -6.558672 h 2.92329 v 6.577411 q 0,0.39352 0.0937,0.674606 0.10306,0.271717 0.27171,0.449738 0.17803,0.178021 0.431,0.262347 0.26235,0.08432 0.57154,0.08432 0.77768,0 1.21804,-0.318564 0.44974,-0.327933 0.62776,-0.871366 0.18739,-0.552802 0.18739,-1.236778 z m 4.11323,-0.449738 v -0.19676 q 0,-1.114974 0.31856,-2.051927 0.31857,-0.946323 0.93696,-1.639668 0.61838,-0.693346 1.51786,-1.077497 0.89947,-0.39352 2.0613,-0.39352 1.18056,0 2.08003,0.39352 0.90885,0.384151 1.52724,1.077497 0.61839,0.693345 0.93695,1.639668 0.31856,0.936953 0.31856,2.051927 v 0.19676 q 0,1.105605 -0.31856,2.051928 -0.31856,0.936953 -0.93695,1.639668 -0.61839,0.693345 -1.51787,1.077496 -0.89947,0.384151 -2.07066,0.384151 -1.16183,0 -2.07067,-0.384151 -0.90885,-0.384151 -1.52723,-1.077496 -0.61839,-0.702715 -0.93696,-1.639668 -0.31856,-0.946323 -0.31856,-2.051928 z m 2.93266,-0.19676 v 0.19676 q 0,0.59965 0.0937,1.124344 0.10306,0.524694 0.32793,0.918214 0.22487,0.39352 0.59028,0.618389 0.37478,0.215499 0.90885,0.215499 0.53406,0 0.89947,-0.215499 0.36541,-0.224869 0.59028,-0.618389 0.22487,-0.39352 0.31857,-0.918214 0.10306,-0.524694 0.10306,-1.124344 v -0.19676 q 0,-0.59028 -0.10306,-1.105605 -0.0937,-0.524693 -0.31857,-0.927583 -0.22487,-0.40289 -0.59965,-0.627759 -0.36541,-0.224869 -0.90884,-0.224869 -0.5247,0 -0.89011,0.224869 -0.36541,0.224869 -0.59028,0.627759 -0.22487,0.40289 -0.32793,0.927583 -0.0937,0.515325 -0.0937,1.105605 z"
       id="text1"
       aria-label="Asiduo" />
    <rect
       style="fill:none;stroke:#b3b3b3;stroke-width:2.388;stroke-dasharray:none;stroke-opacity:1"
       id="rect2"
       width="13.20166"
       height="13.20166"
       x="46.84156"
       y="54.278072" />
    <text
       xml:space="preserve"
       style="font-style:normal;font-variant:normal;font-weight:bold;font-stretch:condensed;font-size:32.4632px;font-family:'Liberation Sans Narrow';-inkscape-font-specification:'Liberation Sans Narrow Bold Condensed';text-align:start;writing-mode:lr-tb;direction:ltr;text-anchor:start;fill:#5c20ff;fill-opacity:1;stroke-width:2.70526"
       x="48.852718"
       y="75.246269"
       id="text2"><tspan
         id="tspan2"
         x="48.852718"
         y="75.246269"
         style="font-style:normal;font-variant:normal;font-weight:bold;font-stretch:normal;font-family:'Liberation Sans';-inkscape-font-specification:'Liberation Sans Bold';fill:#5c20ff;fill-opacity:1;stroke-width:2.70526">*</tspan></text>
  </g>
</svg>
